# xmcd
#
# Track frame offsets:
#	150
#	18525
#	37125
#	56625
#	73885
#	89925
#	109810
#	123750
#	139885
#	160735
#	181650
#	198900
#	211725
#
# Disc length: 3022 seconds
#
# Revision: 1
# Processed by: cddbd v1.4PL0 Copyright (c) Steve Scherf et al.
# Submitted via: audiograbber 1.80
#
DISCID=bd0bcc0d
DTITLE=Ike Turner - Without Love... I Have Nothing
DYEAR=1900
DGENRE=
TTITLE0=Without Love
TTITLE1=I Gave You What You Wanted
TTITLE2=My Sweet Black Angel
TTITLE3=My Babe
TTITLE4=Early One Morning
TTITLE5=You Can't HAve Your Cake (and eat it too)
TTITLE6=Five Long Years
TTITLE7=Show Me (how to make love to you)
TTITLE8=Right On
TTITLE9=I Don't Know Why I Love You
TTITLE10=A Love Like Yours
TTITLE11=Rockin Blues
TTITLE12=Southern California Swing
EXTD=
EXTT0=
EXTT1=
EXTT2=
EXTT3=
EXTT4=
EXTT5=
EXTT6=
EXTT7=
EXTT8=
EXTT9=
EXTT10=
EXTT11=
EXTT12=
PLAYORDER=
